<?xml version="1.0" encoding="utf-8"?>
<!-- Generator: Adobe Illustrator 19.0.0, SVG Export Plug-In . SVG Version: 6.00 Build 0)  -->
<svg version="1.1" id="Layer_1" xmlns="http://www.w3.org/2000/svg" xmlns:xlink="http://www.w3.org/1999/xlink" x="0px" y="0px"
	 viewBox="0 0 1156.8 386.5" style="enable-background:new 0 0 1156.8 386.5;" xml:space="preserve">
<style type="text/css">
	.st0{fill:#8DA5D5;}
</style>
<g id="XMLID_479_">
	<polygon id="XMLID_480_" class="st0" points="32.5,306.1 52.2,306.1 52.2,225.1 90.4,225.1 90.4,208.3 52.2,208.3 52.2,145.6 
		101.8,145.6 101.8,128.7 32.5,128.7 	"/>
	<rect id="XMLID_481_" x="121.7" y="128.7" class="st0" width="19.4" height="177.4"/>
	<path id="XMLID_484_" class="st0" d="M231.5,128.7h-56.2v177.4h56.2c15,0,22.5-7.5,22.5-22.5V151.3
		C254,136.2,246.5,128.7,231.5,128.7z M234.4,280.4c0,3.8-0.6,6.2-1.7,7.3c-1.1,1-3.5,1.6-7.1,1.6H195V145.6h30.5
		c3.6,0,6,0.5,7.1,1.6c1.1,1,1.7,3.5,1.7,7.3V280.4z"/>
	<polygon id="XMLID_485_" class="st0" points="303.7,222.3 341.9,222.3 341.9,205.4 303.7,205.4 303.7,145.6 350.4,145.6 
		350.4,128.7 284,128.7 284,306.1 352.4,306.1 352.4,289.3 303.7,289.3 	"/>
	<path id="XMLID_488_" class="st0" d="M904.2,128.7H848v177.4h56.2c15,0,22.5-7.5,22.5-22.5v-54.2c0-7.6-3.5-12-10.6-13.1
		c7-0.6,10.6-5.2,10.6-14v-51C926.7,136.2,919.2,128.7,904.2,128.7z M907.1,280.4c0,3.8-0.6,6.2-1.7,7.3c-1.1,1-3.5,1.6-7.1,1.6
		h-30.5V224h30.5c3.6,0,6,0.6,7.1,1.7c1.1,1.1,1.7,3.5,1.7,7.1V280.4z M907.1,198.3c0,3.8-0.6,6.2-1.7,7.3c-1.1,1-3.5,1.6-7.1,1.6
		h-30.5v-61.6h30.5c3.6,0,6,0.5,7.1,1.6c1.1,1,1.7,3.5,1.7,7.3V198.3z"/>
	<path id="XMLID_492_" class="st0" d="M1006.9,128.7h-29.1c-15,0-22.5,7.5-22.5,22.5v132.3c0,15,7.5,22.5,22.5,22.5h29.1
		c15,0,22.5-7.5,22.5-22.5V151.3C1029.4,136.2,1021.9,128.7,1006.9,128.7z M1010,280.4c0,3.8-0.6,6.2-1.7,7.3
		c-1.1,1-3.5,1.6-7.1,1.6h-17.7c-3.6,0-6-0.5-7.1-1.6c-1.1-1-1.7-3.5-1.7-7.3v-126c0-3.8,0.6-6.2,1.7-7.3c1.1-1,3.5-1.6,7.1-1.6
		h17.7c3.6,0,6,0.5,7.1,1.6c1.1,1,1.7,3.5,1.7,7.3V280.4z"/>
	<polygon id="XMLID_493_" class="st0" points="1101.5,215.4 1134.6,128.7 1113.5,128.7 1091.2,197.7 1069,128.7 1047.9,128.7 
		1081,215.4 1045.1,306.1 1066.2,306.1 1091.2,233.9 1116.3,306.1 1137.4,306.1 	"/>
	<path id="XMLID_496_" class="st0" d="M722.8,106.7h-9.2c3.6-7.7,5.6-16.2,5.6-25.3c0-32.8-26.6-59.4-59.4-59.4
		c-0.9,0-1.8,0-2.8,0.1c-0.3,0-0.6,0-0.8,0c-0.7,0-1.3,0.1-2,0.1c-0.3,0-0.6,0.1-0.9,0.1c-0.8,0.1-1.5,0.2-2.3,0.3
		c-0.1,0-0.3,0-0.4,0.1c-0.8,0.1-1.7,0.3-2.5,0.5c-0.3,0.1-0.7,0.1-1,0.2c-0.5,0.1-1,0.2-1.6,0.4c-0.4,0.1-0.8,0.2-1.1,0.3
		c-0.5,0.1-1,0.3-1.4,0.4c-0.7,0.2-1.4,0.4-2,0.6c-0.4,0.1-0.8,0.3-1.2,0.4c-0.5,0.2-1,0.4-1.5,0.6c-0.3,0.1-0.5,0.2-0.8,0.3
		c-0.5,0.2-1.1,0.4-1.6,0.7c-0.1,0.1-0.2,0.1-0.4,0.2c-20.7,9.3-35.2,30-35.2,54.2c0-32.8-26.6-59.4-59.4-59.4h0c0,0,0,0,0,0l0,0
		c-32.8,0-59.4,26.6-59.4,59.4c0,1.1,0,2.1,0.1,3.2c0,0.1,0,0.3,0,0.4c0.5,7.7,2.4,15,5.5,21.7h-0.2c0,0,0,0,0,0h-9
		c-7,0-13.7,1.1-20,3c-1.5,0.5-3.1,1-4.6,1.6c-0.8,0.3-1.5,0.6-2.2,0.9c-23.8,10.4-40.5,34.1-40.5,61.7v124.4
		c0,37.1,30.2,67.3,67.3,67.3h244.6c37.1,0,67.3-30.2,67.3-67.3V174C790.1,136.9,759.9,106.7,722.8,106.7z M739.7,320.4
		c-0.2,0.2-0.5,0.4-0.7,0.5c-1.3,0.9-2.7,1.8-4.1,2.5c-1.2,0.6-2.4,1.1-3.7,1.5c0,0,0,0-0.1,0c-2.6,0.8-5.4,1.2-8.2,1.2H478.2
		c-15.3,0-27.7-12.4-27.7-27.7V174c0-15.3,12.4-27.7,27.7-27.7h42.9l79.4,84.7v0l0,0l0.1-0.2l4.3-4.6l0,0l74.9-79.9h42.9
		c15.3,0,27.7,12.4,27.7,27.7v124.4c0,6.4-2.2,12.3-5.9,17c-0.7,0.9-1.4,1.8-2.3,2.6c-0.4,0.4-0.7,0.7-1.1,1.1
		C740.8,319.5,740.2,320,739.7,320.4z"/>
</g>
</svg>
